<svg id="_5" data-name="5" xmlns="http://www.w3.org/2000/svg" width="17.36" height="17.498" viewBox="0 0 17.36 17.498">
  <g id="Group_1230" data-name="Group 1230">
    <path id="Path_595" data-name="Path 595" d="M16.852,6.22H11.862A5.965,5.965,0,0,0,5.934,0a5.98,5.98,0,1,0,.237,11.956v5.029a.511.511,0,0,0,.509.513H16.852a.511.511,0,0,0,.509-.513V6.732A.511.511,0,0,0,16.852,6.22ZM6.171,6.732v4.2a4.957,4.957,0,1,1,4.674-4.71H6.68A.511.511,0,0,0,6.171,6.732Zm10.172,9.74H7.188V11.827a5.976,5.976,0,0,0,4.546-4.582h4.609Z" fill="#7c7ca4"/>
  </g>
</svg>
