<svg xmlns="http://www.w3.org/2000/svg" width="20.323" height="24.388" viewBox="0 0 20.323 24.388">
  <g id="bell" transform="translate(0)">
    <path id="Path_622" data-name="Path 622" d="M158.479,420.573a3.815,3.815,0,0,1-3.811-3.811.762.762,0,0,1,1.524,0,2.286,2.286,0,1,0,4.573,0,.762.762,0,1,1,1.524,0A3.815,3.815,0,0,1,158.479,420.573Zm0,0" transform="translate(-148.317 -396.185)" fill="#2d1967"/>
    <path id="Path_623" data-name="Path 623" d="M39.877,82.291H23.11a1.779,1.779,0,0,1-1.156-3.13,6.81,6.81,0,0,0,2.426-5.215V71.114a7.113,7.113,0,0,1,14.226,0v2.833a6.808,6.808,0,0,0,2.416,5.208,1.778,1.778,0,0,1-1.146,3.137ZM31.494,65.525A5.6,5.6,0,0,0,25.9,71.113v2.833a8.328,8.328,0,0,1-2.957,6.371.254.254,0,0,0-.092.2.257.257,0,0,0,.254.254H39.877a.257.257,0,0,0,.254-.254.25.25,0,0,0-.089-.193,8.331,8.331,0,0,1-2.959-6.373V71.113A5.6,5.6,0,0,0,31.494,65.525Zm0,0" transform="translate(-21.332 -60.952)" fill="#2d1967"/>
    <path id="Path_624" data-name="Path 624" d="M219.43,4.573a.762.762,0,0,1-.762-.762V.762a.762.762,0,1,1,1.524,0V3.811A.762.762,0,0,1,219.43,4.573Zm0,0" transform="translate(-209.269)" fill="#2d1967"/>
  </g>
</svg>
