<svg id="Group_1248" data-name="Group 1248" xmlns="http://www.w3.org/2000/svg" width="21.656" height="16.679" viewBox="0 0 21.656 16.679">
  <path id="Path_451" data-name="Path 451" d="M19.012,57.75H2.648A2.667,2.667,0,0,0,0,60.43V71.749a2.667,2.667,0,0,0,2.648,2.68H19.008a2.667,2.667,0,0,0,2.648-2.68V60.435A2.664,2.664,0,0,0,19.012,57.75Zm1.438,14A1.449,1.449,0,0,1,19.012,73.2H2.648A1.449,1.449,0,0,1,1.21,71.749V60.435a1.449,1.449,0,0,1,1.438-1.456H19.008a1.449,1.449,0,0,1,1.438,1.456V71.749Z" transform="translate(0 -57.75)" fill="#2d1967"/>
  <path id="Path_452" data-name="Path 452" d="M67.074,114.917,72.448,110a.638.638,0,0,0,.045-.886.608.608,0,0,0-.868-.046l-7.41,6.787-1.446-1.318s-.009-.009-.009-.014a.917.917,0,0,0-.1-.088l-5.883-5.372a.6.6,0,0,0-.868.051.634.634,0,0,0,.05.886l5.437,4.959-5.414,5.173a.638.638,0,0,0-.027.886.622.622,0,0,0,.45.2.608.608,0,0,0,.418-.167l5.5-5.247,1.491,1.359a.6.6,0,0,0,.818,0l1.532-1.4,5.464,5.3a.607.607,0,0,0,.868-.023.638.638,0,0,0-.023-.886Z" transform="translate(-53.376 -106.722)" fill="#2d1967"/>
</svg>
