<svg id="_10" data-name="10" xmlns="http://www.w3.org/2000/svg" width="20.708" height="20.871" viewBox="0 0 20.708 20.871">
  <g id="Group_1243" data-name="Group 1243">
    <g id="Group_1242" data-name="Group 1242">
      <path id="Path_617" data-name="Path 617" d="M17.01,0H3.7A3.717,3.717,0,0,0,0,3.727V17.144a3.717,3.717,0,0,0,3.7,3.727H17.01a3.717,3.717,0,0,0,3.7-3.727V3.727A3.717,3.717,0,0,0,17.01,0Zm2.219,17.144a2.228,2.228,0,0,1-2.219,2.236H3.7a2.228,2.228,0,0,1-2.219-2.236V3.727A2.228,2.228,0,0,1,3.7,1.491H17.01a2.228,2.228,0,0,1,2.219,2.236Z" fill="#7c7ca4"/>
    </g>
  </g>
  <g id="Group_1245" data-name="Group 1245" transform="translate(5.916 5.963)">
    <g id="Group_1244" data-name="Group 1244">
      <path id="Path_618" data-name="Path 618" d="M144.668,140.26H141.71v-2.982a.74.74,0,1,0-1.479,0v2.982h-2.958a.745.745,0,0,0,0,1.491h2.958v2.982a.74.74,0,1,0,1.479,0v-2.982h2.958a.745.745,0,0,0,0-1.491Z" transform="translate(-136.533 -136.533)" fill="#7c7ca4"/>
    </g>
  </g>
</svg>
