<svg id="_2" data-name="2" xmlns="http://www.w3.org/2000/svg" width="17.347" height="17.485" viewBox="0 0 17.347 17.485">
  <path id="Path_607" data-name="Path 607" d="M6.686,19.521H1.265A1.271,1.271,0,0,1,0,18.246V8.775A1.271,1.271,0,0,1,1.265,7.5H6.686A1.271,1.271,0,0,1,7.951,8.775v9.471A1.271,1.271,0,0,1,6.686,19.521ZM1.265,8.593a.181.181,0,0,0-.181.182v9.471a.181.181,0,0,0,.181.182H6.686a.181.181,0,0,0,.181-.182V8.775a.181.181,0,0,0-.181-.182Z" transform="translate(0 -2.036)" fill="#7c7ca4"/>
  <path id="Path_608" data-name="Path 608" d="M16.083,4.371H1.265A1.271,1.271,0,0,1,0,3.1V1.275A1.271,1.271,0,0,1,1.265,0H16.083a1.271,1.271,0,0,1,1.265,1.275V3.1A1.271,1.271,0,0,1,16.083,4.371ZM1.265,1.093a.181.181,0,0,0-.181.182V3.1a.181.181,0,0,0,.181.182H16.083a.181.181,0,0,0,.181-.182V1.275a.181.181,0,0,0-.181-.182Z" fill="#7c7ca4"/>
  <path id="Path_609" data-name="Path 609" d="M20.409,8.593H13.542a.546.546,0,0,1,0-1.093h6.867a.546.546,0,0,1,0,1.093Z" transform="translate(-3.603 -2.036)" fill="#7c7ca4"/>
  <path id="Path_610" data-name="Path 610" d="M20.409,11.593H13.542a.546.546,0,0,1,0-1.093h6.867a.546.546,0,0,1,0,1.093Z" transform="translate(-3.603 -2.85)" fill="#7c7ca4"/>
  <path id="Path_611" data-name="Path 611" d="M20.409,14.593H13.542a.546.546,0,0,1,0-1.093h6.867a.546.546,0,0,1,0,1.093Z" transform="translate(-3.603 -3.665)" fill="#7c7ca4"/>
  <path id="Path_612" data-name="Path 612" d="M20.409,17.593H13.542a.546.546,0,0,1,0-1.093h6.867a.546.546,0,0,1,0,1.093Z" transform="translate(-3.603 -4.479)" fill="#7c7ca4"/>
  <path id="Path_613" data-name="Path 613" d="M20.409,20.593H13.542a.546.546,0,0,1,0-1.093h6.867a.546.546,0,0,1,0,1.093Z" transform="translate(-3.603 -5.294)" fill="#7c7ca4"/>
  <path id="Path_614" data-name="Path 614" d="M20.409,23.593H13.542a.546.546,0,0,1,0-1.093h6.867a.546.546,0,0,1,0,1.093Z" transform="translate(-3.603 -6.108)" fill="#7c7ca4"/>
</svg>
