<svg id="_3" data-name="3" xmlns="http://www.w3.org/2000/svg" width="17.488" height="17.589" viewBox="0 0 17.488 17.589">
  <g id="Group_1229" data-name="Group 1229" transform="translate(0 0)">
    <path id="Path_594" data-name="Path 594" d="M12.877,9.869A4.131,4.131,0,1,0,16.975,14,4.119,4.119,0,0,0,12.877,9.869Zm0,7.229A3.1,3.1,0,1,1,15.951,14,3.09,3.09,0,0,1,12.877,17.1ZM4.541,10.09a.53.53,0,0,0-.885,0L.07,16.287a.519.519,0,0,0,0,.517.512.512,0,0,0,.444.259H7.685a.512.512,0,0,0,.444-.259.519.519,0,0,0,0-.517ZM1.4,16.031,4.1,11.375l2.695,4.656Zm.714-7.559a.51.51,0,0,0,.443.258h4.1A.51.51,0,0,0,7.1,8.471L9.153,4.894a.517.517,0,0,0,0-.516L7.1.8A.51.51,0,0,0,6.66.542h-4.1A.51.51,0,0,0,2.118.8L.069,4.378a.517.517,0,0,0,0,.516Zm.739-6.9H6.364L8.118,4.636,6.364,7.7H2.858L1.1,4.636Zm14.118,0H10.827a.514.514,0,0,0-.512.516v6.2a.514.514,0,0,0,.512.516h6.148a.514.514,0,0,0,.512-.516v-6.2A.514.514,0,0,0,16.975,1.572Zm-.512,6.2H11.34V2.6h5.123Z" transform="translate(0 -0.542)" fill="#7c7ca4"/>
  </g>
</svg>
