<svg id="_6" data-name="6" xmlns="http://www.w3.org/2000/svg" width="17.698" height="17.837" viewBox="0 0 17.698 17.837">
  <g id="Group_1231" data-name="Group 1231" transform="translate(0 0)">
    <path id="Path_596" data-name="Path 596" d="M17.622,8.618a.635.635,0,0,0-.256-.258L14.877,7.009l2.488-1.351a.639.639,0,0,0,0-1.121L9.149.078a.628.628,0,0,0-.6,0L.332,4.537a.639.639,0,0,0,0,1.121L2.821,7.009.332,8.36a.639.639,0,0,0,0,1.121l2.488,1.351L.332,12.182a.639.639,0,0,0,0,1.121l8.217,4.459a.628.628,0,0,0,.6,0L17.365,13.3a.639.639,0,0,0,0-1.121l-2.488-1.351,2.488-1.351A.64.64,0,0,0,17.622,8.618ZM1.965,5.1,8.849,1.362,15.733,5.1,8.849,8.834Zm13.768,7.645L8.849,16.479,1.965,12.743l2.188-1.187,4.4,2.385a.628.628,0,0,0,.6,0l4.4-2.385Zm-6.884-.087L1.965,8.92,4.153,7.733l4.4,2.385a.628.628,0,0,0,.6,0l4.4-2.385L15.733,8.92Z" transform="translate(0 -0.002)" fill="#7c7ca4"/>
  </g>
</svg>
