<svg xmlns="http://www.w3.org/2000/svg" width="20.499" height="18.142" viewBox="0 0 20.499 18.142">
  <path id="_7" data-name="7" d="M16.5,11.2a.894.894,0,0,1,.8.965v1.158a.894.894,0,0,1-.8.965H14.654a.894.894,0,0,1-.8-.965V12.165a.894.894,0,0,1,.8-.965Zm2.4-1.737v-2.9H1.6v7.714a1.791,1.791,0,0,0,1.6,1.93H17.3a1.791,1.791,0,0,0,1.6-1.93.815.815,0,1,1,1.6,0c0,2.129-1.437,3.86-3.2,3.86H3.2c-1.766,0-3.2-1.732-3.2-3.86V3.86C0,1.732,1.437,0,3.2,0H17.3c1.766,0,3.2,1.732,3.2,3.86v5.6a.815.815,0,1,1-1.6,0Zm0-4.825V3.86a1.791,1.791,0,0,0-1.6-1.93H3.2A1.791,1.791,0,0,0,1.6,3.86v.778ZM4,8.5a.894.894,0,0,0-.8.965.894.894,0,0,0,.8.965H10.61a.894.894,0,0,0,.8-.965.894.894,0,0,0-.8-.965Zm0,0" fill="#7c7ca4"/>
</svg>
