<svg xmlns="http://www.w3.org/2000/svg" width="20.549" height="20.711" viewBox="0 0 20.549 20.711">
  <g id="_8" data-name="8" transform="translate(0)">
    <path id="Path_597" data-name="Path 597" d="M168.946,182.655a.636.636,0,0,1-.454-.19.651.651,0,0,1-.171-.606l.933-3.991a.64.64,0,0,1,.171-.309l8.173-8.238a1.961,1.961,0,0,1,2.724,0l1.211,1.22a1.952,1.952,0,0,1,0,2.745l-8.173,8.237a.641.641,0,0,1-.307.173l-3.96.941a.583.583,0,0,1-.148.018Zm1.516-4.311-.653,2.794,2.772-.658,8.044-8.108a.65.65,0,0,0,0-.915l-1.211-1.22a.64.64,0,0,0-.908,0Zm2.445,2.724h0Zm0,0" transform="translate(-161.549 -161.944)" fill="#7c7ca4"/>
    <path id="Path_598" data-name="Path 598" d="M346.076,234.8a.635.635,0,0,1-.454-.19l-3.027-3.052a.651.651,0,0,1,0-.916.639.639,0,0,1,.908,0l3.028,3.051a.651.651,0,0,1,0,.916A.639.639,0,0,1,346.076,234.8Zm0,0" transform="translate(-328.664 -221.127)" fill="#7c7ca4"/>
    <path id="Path_599" data-name="Path 599" d="M5.857,18.122H1.927A1.936,1.936,0,0,1,0,16.181V1.942A1.936,1.936,0,0,1,1.927,0H14.341a1.936,1.936,0,0,1,1.926,1.942v4a.642.642,0,1,1-1.284,0v-4a.645.645,0,0,0-.642-.647H1.927a.645.645,0,0,0-.642.647V16.181a.645.645,0,0,0,.642.647h3.93a.647.647,0,0,1,0,1.294Zm0,0" transform="translate(0)" fill="#7c7ca4"/>
    <path id="Path_600" data-name="Path 600" d="M15.626,107.962H.642a.647.647,0,0,1,0-1.294H15.626a.647.647,0,0,1,0,1.294Zm0,0" transform="translate(0 -102.353)" fill="#7c7ca4"/>
    <path id="Path_601" data-name="Path 601" d="M12.475,214.626H.642a.647.647,0,0,1,0-1.294H12.475a.647.647,0,0,1,0,1.294Zm0,0" transform="translate(0 -204.702)" fill="#7c7ca4"/>
    <path id="Path_602" data-name="Path 602" d="M8.134,321.294H.642a.647.647,0,0,1,0-1.294H8.134a.647.647,0,0,1,0,1.294Zm0,0" transform="translate(0 -307.056)" fill="#7c7ca4"/>
    <path id="Path_603" data-name="Path 603" d="M187.31,116.592a.645.645,0,0,1-.642-.647v-8.63a.642.642,0,1,1,1.284,0v8.63A.645.645,0,0,1,187.31,116.592Zm0,0" transform="translate(-179.176 -102.353)" fill="#7c7ca4"/>
  </g>
</svg>
