<svg id="_9" data-name="9" xmlns="http://www.w3.org/2000/svg" width="20.811" height="20.976" viewBox="0 0 20.811 20.976">
  <g id="Group_1233" data-name="Group 1233" transform="translate(0 12.036)">
    <g id="Group_1232" data-name="Group 1232">
      <path id="Path_604" data-name="Path 604" d="M2.8,293.776A2.818,2.818,0,0,0,0,296.6v3.29a2.818,2.818,0,0,0,2.8,2.825,2.817,2.817,0,0,0,2.8-2.825V296.6A2.818,2.818,0,0,0,2.8,293.776Zm1.177,6.115a1.177,1.177,0,1,1-2.354,0V296.6a1.177,1.177,0,1,1,2.354,0Z" transform="translate(0 -293.776)" fill="#7c7ca4"/>
    </g>
  </g>
  <g id="Group_1235" data-name="Group 1235" transform="translate(7.602)">
    <g id="Group_1234" data-name="Group 1234">
      <path id="Path_605" data-name="Path 605" d="M189.84,0a2.817,2.817,0,0,0-2.8,2.825V18.151a2.8,2.8,0,1,0,5.606,0V2.825A2.817,2.817,0,0,0,189.84,0Zm1.177,18.151a1.177,1.177,0,1,1-2.355,0V2.825a1.177,1.177,0,1,1,2.355,0Z" transform="translate(-187.037)" fill="#7c7ca4"/>
    </g>
  </g>
  <g id="Group_1237" data-name="Group 1237" transform="translate(15.205 6.018)">
    <g id="Group_1236" data-name="Group 1236">
      <path id="Path_606" data-name="Path 606" d="M376.878,146.888a2.818,2.818,0,0,0-2.8,2.825v9.307a2.8,2.8,0,1,0,5.606,0v-9.307A2.817,2.817,0,0,0,376.878,146.888Zm1.177,12.133a1.177,1.177,0,1,1-2.354,0v-9.307a1.177,1.177,0,1,1,2.354,0Z" transform="translate(-374.075 -146.888)" fill="#7c7ca4"/>
    </g>
  </g>
</svg>
