<svg xmlns="http://www.w3.org/2000/svg" width="17.348" height="17.347" viewBox="0 0 17.348 17.347">
  <g id="dashboard" transform="translate(0 0)">
    <path id="Path_589" data-name="Path 589" d="M6.686,5.783H1.265A1.266,1.266,0,0,1,0,4.518V1.265A1.266,1.266,0,0,1,1.265,0H6.686A1.266,1.266,0,0,1,7.951,1.265V4.518A1.266,1.266,0,0,1,6.686,5.783Zm-5.421-4.7a.181.181,0,0,0-.181.181V4.518a.181.181,0,0,0,.181.181H6.686a.181.181,0,0,0,.181-.181V1.265a.181.181,0,0,0-.181-.181Zm0,0" fill="#7c7ca4"/>
    <path id="Path_590" data-name="Path 590" d="M6.686,223.451H1.265A1.266,1.266,0,0,1,0,222.187V214.6a1.266,1.266,0,0,1,1.265-1.265H6.686A1.266,1.266,0,0,1,7.951,214.6v7.59A1.266,1.266,0,0,1,6.686,223.451Zm-5.421-9.035a.181.181,0,0,0-.181.181v7.59a.181.181,0,0,0,.181.181H6.686a.181.181,0,0,0,.181-.181V214.6a.181.181,0,0,0-.181-.181Zm0,0" transform="translate(0 -206.104)" fill="#7c7ca4"/>
    <path id="Path_591" data-name="Path 591" d="M284.018,347.115H278.6a1.266,1.266,0,0,1-1.265-1.265V342.6a1.266,1.266,0,0,1,1.265-1.265h5.421a1.266,1.266,0,0,1,1.265,1.265v3.253A1.266,1.266,0,0,1,284.018,347.115Zm-5.421-4.7a.181.181,0,0,0-.181.181v3.253a.181.181,0,0,0,.181.181h5.421a.181.181,0,0,0,.181-.181V342.6a.181.181,0,0,0-.181-.181Zm0,0" transform="translate(-267.936 -329.767)" fill="#7c7ca4"/>
    <path id="Path_592" data-name="Path 592" d="M284.018,10.119H278.6a1.266,1.266,0,0,1-1.265-1.265V1.265A1.266,1.266,0,0,1,278.6,0h5.421a1.266,1.266,0,0,1,1.265,1.265v7.59A1.266,1.266,0,0,1,284.018,10.119ZM278.6,1.084a.181.181,0,0,0-.181.181v7.59a.181.181,0,0,0,.181.181h5.421a.181.181,0,0,0,.181-.181V1.265a.181.181,0,0,0-.181-.181Zm0,0" transform="translate(-267.936)" fill="#7c7ca4"/>
  </g>
</svg>
