<svg xmlns="http://www.w3.org/2000/svg" width="20.557" height="23.205" viewBox="0 0 20.557 23.205">
  <g id="_11" data-name="11" transform="translate(0)">
    <g id="Group_1239" data-name="Group 1239" transform="translate(10.69 8.288)">
      <g id="Group_1238" data-name="Group 1238">
        <path id="Path_615" data-name="Path 615" d="M250.745,170.667a3.315,3.315,0,1,0,3.289,3.315A3.3,3.3,0,0,0,250.745,170.667Zm0,4.973a1.658,1.658,0,1,1,1.645-1.658A1.651,1.651,0,0,1,250.745,175.64Z" transform="translate(-247.456 -170.667)" fill="#7c7ca4"/>
      </g>
    </g>
    <g id="Group_1241" data-name="Group 1241" transform="translate(0)">
      <g id="Group_1240" data-name="Group 1240" transform="translate(0)">
        <path id="Path_616" data-name="Path 616" d="M39.569,4.973a9.842,9.842,0,0,0-.995.055C37.973,1.779,35.73,0,32.168,0,27.926,0,25.59,2.463,25.59,6.935c0,4.861,5.748,10.8,5.992,11.049a.816.816,0,0,0,1.173,0c.033-.034.641-.663,1.46-1.658a29.684,29.684,0,0,0,4.769,6.63.818.818,0,0,0,1.163.01l.01-.01c.243-.249,5.991-6.189,5.991-11.049C46.147,7.436,43.811,4.973,39.569,4.973Zm-7.9-1.7a3.35,3.35,0,0,0,.892,6.641,3.3,3.3,0,0,0,.637-.153c-.031.151-.057.311-.082.472-.007.041-.015.083-.021.121-.028.2-.049.414-.066.626,0,.044-.01.083-.013.13-.016.255-.026.52-.026.8a6.99,6.99,0,0,0,.058.829c.009.074.02.148.031.221.033.218.076.44.131.668.016.068.028.136.046.2.065.249.141.508.231.772-.508.651-.974,1.2-1.316,1.584-1.424-1.6-4.936-5.9-4.936-9.252,0-3.551,1.614-5.278,4.934-5.278,2.781,0,4.358,1.213,4.8,3.7l-.021.007a5.976,5.976,0,0,0-1.034.457l-.069.04q-.225.132-.434.283A3.329,3.329,0,0,0,31.668,3.275ZM33.813,6.63a1.645,1.645,0,1,1-1.645-1.658A1.651,1.651,0,0,1,33.813,6.63Zm5.756,14.527A24.888,24.888,0,0,1,35.2,14.535a.754.754,0,0,0-.021-.083,8.234,8.234,0,0,1-.511-1.955,5.5,5.5,0,0,1-.036-.589,9.774,9.774,0,0,1,.07-1.155c.014-.114.038-.217.056-.327a6.6,6.6,0,0,1,.146-.687c.033-.117.071-.227.109-.337a4.77,4.77,0,0,1,.224-.532c.053-.1.1-.209.164-.307a3.853,3.853,0,0,1,.306-.423c.071-.083.135-.179.213-.258a3.5,3.5,0,0,1,.438-.363,3.737,3.737,0,0,1,.493-.3A4.1,4.1,0,0,1,37.3,7c.137-.052.289-.089.437-.13a6.786,6.786,0,0,1,1.832-.244c3.32,0,4.934,1.726,4.934,5.278C44.5,15.261,40.991,19.557,39.569,21.157Z" transform="translate(-25.59)" fill="#7c7ca4"/>
      </g>
    </g>
  </g>
</svg>
